<?xml version="1.0" encoding="utf-8"?>
<!-- Generator: Adobe Illustrator 25.1.0, SVG Export Plug-In . SVG Version: 6.00 Build 0)  -->
<svg version="1.1" id="Layer_1" xmlns="http://www.w3.org/2000/svg" xmlns:xlink="http://www.w3.org/1999/xlink" x="0px" y="0px"
	 viewBox="0 0 193.6 51.6" style="enable-background:new 0 0 193.6 51.6;" xml:space="preserve">
<style type="text/css">
	.st0{fill:#F39600;}
	.st1{fill:#385C9E;}
</style>
<g>
	<g>
		<g>
			<path class="st0" d="M20.6,41.1C9.3,41.1,0,31.9,0,20.5C0.1,9.2,9.3,0,20.6,0c2.6,0,5.1,0.5,7.5,1.4c0.3,0.1,0.6,0.2,0.8,0.3
				c0,0-0.9,0.6-1.4,1.1c-0.7,0.7-1.3,1.3-1.3,1.3c-1.8-0.6-3.7-0.9-5.6-0.9c-9.5,0-17.2,7.7-17.2,17.2s7.7,17.2,17.2,17.2"/>
		</g>
		<g>
			<path class="st0" d="M20.7,34.7c-7.8,0-14.2-6.4-14.2-14.2S12.9,6.3,20.7,6.3c1,0,1.9,0.1,2.9,0.3c0.2,0,0.5,0.1,0.7,0.2
				c0,0-0.6,0.8-0.9,1.4c-0.3,0.6-0.8,1.6-0.8,1.6c-0.6-0.1-1.2-0.2-1.8-0.2c-6,0-10.8,4.9-10.8,10.8c0,6,4.9,10.8,10.8,10.8"/>
		</g>
		<g>
			<path class="st0" d="M20.6,28.1c-4.2,0-7.6-3.4-7.6-7.6s3.4-7.6,7.6-7.6c0.2,0,0.3,0,0.5,0c0.1,0,0.2,0,0.3,0
				c0,0-0.2,1.1-0.3,1.6c-0.1,0.7-0.2,1.7-0.2,1.7h-0.1h-0.1c-2.3,0-4.2,1.9-4.2,4.2s1.9,4.2,4.2,4.2"/>
		</g>
		<g>
			<path class="st0" d="M27.6,51.6h-3v-31C24.6,9.2,33.9,0,45.2,0s20.5,9.2,20.5,20.6c0,11.3-9.2,20.6-20.6,20.6v-3.3
				c9.8,0,17.3-7.7,17.3-17.2S54.5,3.5,45,3.5s-17.4,7.7-17.4,17.2V51.6z"/>
		</g>
		<g>
			<path class="st0" d="M34.2,51.6H31V20.5c0-7.8,6.5-14.2,14.3-14.2s14.1,6.4,14.1,14.2s-6.3,14.2-14.3,14.2v-3.3
				c6.2,0,11-4.9,11-10.8c0-6-5-10.8-11-10.8s-10.9,4.9-10.9,10.8C34.2,20.6,34.2,51.6,34.2,51.6z"/>
		</g>
		<g>
			<path class="st0" d="M41,51.6h-3.4v-31c0-4.2,3.5-7.6,7.7-7.6c4.2,0,7.5,3.4,7.5,7.6s-3.3,7.6-7.6,7.6v-3.3
				c2.4,0,4.4-1.9,4.4-4.2s-1.9-4.2-4.2-4.2c-2.3,0-4.2,1.9-4.2,4.2v30.9H41z"/>
		</g>
	</g>
</g>
<g>
	<g>
		<g>
			<g>
				<g>
					<path class="st1" d="M90.6,28.4c-0.2,0.1-0.5,0.1-0.7,0.2c-0.2,0.1-0.4,0.1-0.6,0.1s-0.4,0.1-0.7,0.1c-0.2,0-0.5,0-0.9,0
						c-1.1,0-2-0.2-3-0.6c-0.9-0.4-1.7-1-2.4-1.7c-0.7-0.7-1.2-1.5-1.6-2.5c-0.4-0.9-0.6-1.9-0.6-3c0-1,0.2-2,0.6-3
						c0.4-0.9,0.9-1.8,1.6-2.5s1.5-1.3,2.4-1.7c0.9-0.4,1.9-0.6,3-0.6c0.6,0,1.2,0.1,1.8,0.2c0.5,0.1,1,0.3,1.4,0.5s0.8,0.4,1.2,0.7
						l-1.3,2c-0.2-0.2-0.5-0.3-0.8-0.5c-0.2-0.1-0.6-0.2-0.9-0.3c-0.4-0.1-0.8-0.2-1.3-0.2c-0.6,0-1.3,0.1-1.9,0.4s-1.1,0.7-1.5,1.1
						c-0.4,0.5-0.8,1-1,1.7c-0.3,0.6-0.4,1.3-0.4,2s0.1,1.4,0.4,2.1c0.3,0.6,0.6,1.2,1,1.7s0.9,0.9,1.5,1.2s1.2,0.4,1.9,0.4
						c0.6,0,1.1,0,1.5-0.1s0.9-0.2,1.4-0.3L90.6,28.4L90.6,28.4z"/>
					<path class="st1" d="M101.8,28.8c-1.1,0-2-0.2-2.9-0.6c-0.9-0.4-1.7-1-2.3-1.7c-0.7-0.7-1.2-1.5-1.6-2.4s-0.6-1.9-0.6-3
						c0-1,0.2-2,0.6-3c0.4-0.9,0.9-1.8,1.6-2.5s1.5-1.3,2.3-1.7c0.9-0.4,1.9-0.6,2.9-0.6s2,0.2,2.9,0.6s1.7,1,2.4,1.7
						c0.7,0.7,1.2,1.5,1.6,2.5c0.4,0.9,0.6,1.9,0.6,3s-0.2,2-0.6,3c-0.4,0.9-0.9,1.7-1.6,2.4s-1.5,1.3-2.4,1.7
						C103.8,28.6,102.9,28.8,101.8,28.8z M101.8,26.4c0.7,0,1.3-0.1,1.9-0.4c0.6-0.3,1.1-0.7,1.5-1.2s0.7-1,1-1.7
						c0.2-0.6,0.3-1.3,0.3-2s-0.1-1.4-0.3-2c-0.2-0.6-0.5-1.2-1-1.7c-0.4-0.5-0.9-0.9-1.5-1.2c-0.6-0.3-1.2-0.4-1.9-0.4
						c-0.7,0-1.3,0.1-1.9,0.4s-1.1,0.7-1.5,1.2s-0.7,1.1-1,1.7c-0.2,0.6-0.3,1.3-0.3,2s0.1,1.4,0.3,2c0.2,0.6,0.5,1.2,1,1.7
						c0.4,0.5,0.9,0.9,1.5,1.2C100.5,26.2,101.2,26.4,101.8,26.4z"/>
					<path class="st1" d="M116.2,8.2c0,0.2-0.1,0.4-0.2,0.6c-0.1,0.2-0.3,0.4-0.4,0.6c-0.2,0.2-0.4,0.3-0.6,0.4
						c-0.2,0.1-0.4,0.2-0.6,0.2c-0.2,0-0.4-0.1-0.7-0.2c-0.2-0.1-0.4-0.2-0.6-0.4c-0.2-0.2-0.3-0.4-0.4-0.6
						c-0.1-0.2-0.2-0.4-0.2-0.6s0.1-0.4,0.2-0.6c0.1-0.2,0.2-0.4,0.4-0.6c0.2-0.2,0.4-0.3,0.6-0.4c0.2-0.1,0.4-0.2,0.6-0.2
						c0.2,0,0.4,0.1,0.7,0.2c0.2,0.1,0.4,0.3,0.6,0.4c0.2,0.2,0.3,0.4,0.4,0.6C116.2,7.8,116.2,8,116.2,8.2z M113,28.4V13.8h2.8
						v14.6H113z"/>
					<path class="st1" d="M130.7,28.4v-8.3c0-1.3-0.3-2.3-0.9-3.1c-0.6-0.8-1.5-1.1-2.6-1.1c-0.6,0-1.1,0.1-1.5,0.2
						c-0.4,0.2-0.8,0.3-1.1,0.5c-0.4,0.2-0.7,0.5-0.9,0.7v11.1h-2.8V13.8h2.6V15c0.3-0.3,0.6-0.6,1-0.8c0.3-0.2,0.7-0.4,1.2-0.6
						s1-0.3,1.6-0.3c1,0,1.8,0.2,2.6,0.5s1.4,0.7,1.9,1.3c0.5,0.5,0.9,1.2,1.2,1.9c0.3,0.7,0.4,1.5,0.4,2.3v9.1H130.7z"/>
					<path class="st1" d="M138.4,36V13.8c0.4,0,0.9-0.1,1.4-0.1c0.4,0,0.9-0.1,1.4-0.1s1.1,0,1.7,0c0.2,0,0.5,0,1,0s1,0.1,1.6,0.2
						s1.3,0.3,2,0.6c0.7,0.3,1.3,0.7,2,1.3c0.4,0.4,0.8,0.8,1.1,1.3s0.6,0.9,0.8,1.4s0.3,1,0.4,1.4c0.1,0.5,0.1,0.9,0.1,1.3
						c0,1.1-0.2,2-0.6,3c-0.4,0.9-0.9,1.7-1.6,2.4c-0.7,0.7-1.5,1.2-2.4,1.7c-0.9,0.4-1.8,0.6-2.8,0.6c-0.9,0-1.6-0.1-2.2-0.3
						c-0.5-0.2-0.9-0.4-1.2-0.5v8H138.4z M141.2,25.6c0.1,0.1,0.5,0.2,1,0.4s1.2,0.3,2.2,0.3c0.5,0,1-0.1,1.6-0.4
						c0.6-0.2,1.1-0.6,1.6-1s0.9-1,1.2-1.6c0.3-0.6,0.5-1.4,0.5-2.2c0-0.5-0.1-1-0.2-1.4c-0.1-0.4-0.3-0.8-0.5-1.1
						c-0.2-0.3-0.4-0.6-0.6-0.8c-0.2-0.2-0.3-0.3-0.4-0.4c-0.4-0.4-1-0.8-1.8-1.1c-0.7-0.3-1.6-0.4-2.8-0.4c-0.2,0-0.6,0-1,0.1
						c-0.4,0-0.7,0.1-0.9,0.1L141.2,25.6L141.2,25.6z"/>
					<path class="st1" d="M155.9,28.4V5.2h2.8v23.2H155.9z"/>
					<path class="st1" d="M173.5,28.4v-1.2c-0.3,0.3-0.6,0.6-1,0.8c-0.3,0.2-0.7,0.4-1.2,0.6c-0.5,0.2-1,0.3-1.6,0.3
						c-1.9,0-3.4-0.5-4.4-1.6c-1.1-1.1-1.6-2.5-1.6-4.3v-9.1h2.8v8.3c0,1.3,0.3,2.3,0.9,3.1c0.6,0.8,1.4,1.1,2.5,1.1
						c0.5,0,1-0.1,1.4-0.2c0.4-0.2,0.8-0.3,1.1-0.5s0.6-0.5,0.9-0.7V13.8h2.8v14.6H173.5z"/>
					<path class="st1" d="M181.7,33.6c0.8,0,1.5,0,2,0s0.9,0,1.2,0s0.5,0,0.7-0.1c0.7,0,1.4-0.1,2-0.3s1.2-0.6,1.7-1.1
						s0.8-1.1,1.1-1.8s0.4-1.6,0.4-2.7c-0.2,0.1-0.6,0.3-1.2,0.5c-0.5,0.2-1.3,0.3-2.2,0.3c-1,0-1.9-0.2-2.8-0.6
						c-0.9-0.4-1.7-0.9-2.4-1.6c-0.7-0.7-1.2-1.5-1.6-2.4c-0.4-0.9-0.6-1.9-0.6-2.9c0-0.8,0.2-1.7,0.6-2.6c0.4-1,1-1.8,1.9-2.6
						c0.6-0.6,1.3-1,2-1.3s1.3-0.5,2-0.6c0.6-0.1,1.2-0.2,1.6-0.2c0.5,0,0.8,0,1,0c0.6,0,1.1,0,1.7,0c0.5,0,1,0.1,1.4,0.1
						c0.5,0,0.9,0.1,1.4,0.1v13.8c0,1.7-0.2,3.1-0.7,4.1c-0.5,1.1-1.1,1.9-1.9,2.6c-0.8,0.6-1.7,1.1-2.7,1.3s-2,0.4-3.1,0.4
						c-0.6,0-1.1,0-1.6,0c-0.4,0-0.8,0-1.1,0s-0.6,0-0.8,0L181.7,33.6L181.7,33.6z M190.7,16.1c-0.2,0-0.5-0.1-0.9-0.1
						s-0.7-0.1-1-0.1c-1.1,0-2,0.1-2.8,0.4c-0.7,0.3-1.3,0.6-1.8,1c-0.1,0.1-0.2,0.2-0.4,0.4c-0.2,0.2-0.4,0.4-0.6,0.7
						c-0.2,0.3-0.3,0.6-0.5,1c-0.1,0.4-0.2,0.9-0.2,1.4c0,0.8,0.2,1.5,0.5,2.1s0.7,1.1,1.2,1.5s1,0.7,1.6,1c0.6,0.2,1.1,0.3,1.6,0.3
						c0.9,0,1.6-0.1,2.2-0.3c0.5-0.2,0.9-0.3,1-0.4L190.7,16.1L190.7,16.1z"/>
				</g>
			</g>
		</g>
	</g>
</g>
</svg>
